<?xml version="1.0" standalone="no"?>
<!DOCTYPE svg PUBLIC "-//W3C//DTD SVG 20010904//EN"
 "http://www.w3.org/TR/2001/REC-SVG-20010904/DTD/svg10.dtd">
<svg version="1.0" xmlns="http://www.w3.org/2000/svg"
 width="500.000000pt" height="500.000000pt" viewBox="0 0 500.000000 500.000000"
 preserveAspectRatio="xMidYMid meet">

<g transform="translate(0.000000,500.000000) scale(0.100000,-0.100000)"
fill="#000000" stroke="none">
<path d="M0 2500 l0 -2500 2500 0 2500 0 0 2500 0 2500 -2500 0 -2500 0 0
-2500z m2466 1685 c47 -14 71 -27 142 -80 18 -13 59 -29 90 -35 89 -18 139
-46 167 -94 68 -116 23 -241 -86 -241 -47 0 -51 4 -43 42 5 23 14 33 38 41 25
8 27 10 9 11 -26 1 -30 16 -9 28 33 20 45 76 23 107 -11 15 -12 12 -9 -22 3
-32 0 -42 -19 -56 -29 -20 -74 -20 -130 0 -24 8 -65 16 -91 17 -27 1 -48 4
-48 5 0 2 9 15 20 29 26 34 35 85 19 114 -13 23 -14 21 -20 -30 -9 -64 -32
-99 -85 -126 -74 -38 -160 -20 -232 48 l-32 31 10 -31 c15 -42 40 -63 99 -83
l48 -16 -69 -47 c-80 -54 -105 -57 -172 -23 -41 21 -45 21 -30 5 20 -22 118
-54 140 -45 20 8 42 -40 26 -56 -19 -19 -141 -15 -194 5 -65 25 -98 66 -98
123 0 55 20 95 64 129 18 14 36 38 39 53 3 15 22 46 42 70 101 117 257 168
391 127z m174 -328 c61 -26 71 -45 77 -145 l6 -91 -44 16 c-98 34 -260 -6
-352 -87 l-37 -32 0 31 c0 17 -12 67 -27 111 -23 69 -25 81 -12 96 36 44 187
117 259 126 33 4 87 -6 130 -25z m52 -243 l32 -16 -27 -14 c-59 -32 -55 -74 8
-74 57 0 68 -16 63 -90 -2 -33 -1 -60 2 -60 11 0 30 -49 30 -76 0 -21 -4 -25
-22 -22 -13 2 -22 8 -21 15 1 6 -5 10 -15 9 -9 0 -25 15 -38 39 -30 53 -29 55
11 55 33 0 35 2 35 33 0 18 -5 38 -12 45 -16 16 -60 15 -77 0 -11 -11 -11 -9
-1 12 12 22 12 24 -2 12 -9 -7 -19 -28 -22 -46 -6 -29 -2 -39 24 -64 42 -42
40 -76 -7 -101 -28 -14 -36 -14 -27 1 4 7 3 8 -5 4 -21 -13 -71 4 -71 25 0 18
10 23 38 20 14 -2 17 35 3 43 -5 4 -7 -2 -4 -12 3 -14 -1 -19 -18 -18 -14 1
-28 -9 -38 -28 -9 -16 -23 -32 -30 -34 -8 -3 -11 0 -7 7 5 7 1 9 -8 5 -9 -3
-14 -9 -11 -14 2 -4 -7 -5 -20 -2 -15 2 -25 0 -25 -7 0 -6 -16 -11 -36 -11
-28 0 -37 5 -41 20 -4 16 -8 18 -19 9 -21 -17 -17 -53 9 -77 12 -12 49 -28 82
-35 33 -8 77 -25 98 -37 50 -30 107 -23 151 18 17 16 37 27 44 25 7 -3 27 0
44 6 17 6 33 9 35 7 8 -8 -34 -91 -56 -110 -21 -19 -21 -19 -42 0 -21 19 -21
19 -9 -8 18 -39 6 -74 -31 -87 -47 -16 -96 -13 -143 8 -23 10 -62 28 -88 39
-64 29 -98 78 -119 170 -17 75 -17 76 -18 30 -1 -39 -4 -48 -18 -48 -31 0 -45
16 -65 71 -32 90 -24 159 17 159 19 0 55 -48 55 -73 0 -18 -2 -17 -21 7 -20
26 -49 35 -49 16 0 -5 7 -10 15 -10 12 0 13 -4 5 -19 -5 -11 -10 -28 -9 -38 0
-15 2 -14 9 5 15 35 32 27 25 -12 -4 -20 -2 -36 4 -40 6 -4 9 -1 6 6 -6 17 31
61 44 53 7 -4 10 14 9 47 -2 119 8 177 33 197 33 25 86 52 134 67 59 19 170
17 207 -2z m618 -59 c0 -11 13 -15 54 -15 44 0 60 -5 86 -26 35 -30 60 -73 60
-103 0 -29 -43 -35 -270 -35 l-195 -1 2 28 c1 16 11 45 21 65 21 42 65 60 143
61 38 1 48 5 52 21 6 24 47 28 47 5z m-580 -114 c14 -28 12 -51 -4 -51 -9 0
-16 12 -18 28 -2 18 -8 27 -20 26 -10 -1 -15 2 -12 7 10 16 43 9 54 -10z m-30
-11 c0 -5 -5 -10 -11 -10 -5 0 -7 5 -4 10 3 6 8 10 11 10 2 0 4 -4 4 -10z
m810 -82 c-1 -35 -32 -68 -75 -79 -22 -5 -105 -12 -183 -16 -159 -7 -162 -6
-162 55 0 17 -4 32 -10 32 -5 0 -10 -21 -10 -46 0 -31 -4 -44 -12 -42 -13 5
-31 75 -24 94 3 8 37 10 118 7 62 -2 156 0 208 5 153 15 150 15 150 -10z
m-500 -12 c0 -13 3 -39 7 -57 l6 -34 -26 18 c-15 10 -27 13 -27 7 0 -42 172
-62 371 -41 175 18 250 36 276 66 12 14 24 22 26 17 10 -16 -13 -50 -47 -71
-84 -53 -528 -69 -629 -24 -26 12 -50 29 -54 39 -11 29 11 68 47 86 45 23 50
23 50 -6z m-344 -161 c-4 -14 -66 -25 -110 -18 l-38 6 37 13 c21 7 45 19 53
28 13 13 18 13 38 -2 13 -9 22 -21 20 -27z m726 -7 c16 -13 22 -29 19 -56 0
-7 -17 -20 -36 -29 -25 -12 -32 -19 -23 -25 15 -11 -87 1 -117 13 -16 6 -13 8
15 9 l35 1 -42 13 c-23 8 -56 27 -73 44 -30 30 -30 31 -8 35 54 10 215 7 230
-5z m-195 -108 c25 -13 59 -20 98 -21 123 -3 148 -24 107 -92 -11 -17 -27 -57
-37 -87 -58 -180 -155 -257 -288 -228 -62 13 -110 55 -147 127 -27 55 -53 131
-44 131 3 0 26 -11 52 -24 26 -13 75 -32 107 -41 86 -25 115 -42 130 -78 9
-19 14 -25 15 -14 0 32 -28 85 -58 107 l-29 22 13 56 c8 31 14 69 14 84 0 28
16 78 25 78 3 0 22 -9 42 -20z m-797 -54 c6 -8 33 -22 60 -31 49 -16 65 -38
48 -68 -6 -11 -17 -15 -36 -11 -15 2 -33 0 -41 -5 -11 -7 -7 -18 23 -53 75
-87 127 -228 160 -440 27 -169 15 -366 -26 -415 -11 -14 -88 -18 -88 -5 0 18
-40 32 -61 22 -16 -9 -27 -7 -53 10 -43 26 -106 95 -106 116 0 9 -14 60 -30
113 l-30 98 25 55 c14 30 28 82 31 116 7 67 -9 171 -33 212 -10 17 -12 19 -8
5 38 -120 32 -236 -16 -332 -32 -66 -34 -67 -39 -38 l-6 30 -21 -46 c-27 -61
-36 -65 -56 -24 -17 36 -45 58 -87 70 -23 6 -22 5 8 -21 l34 -29 -56 0 c-30 0
-60 -5 -65 -10 -8 -8 0 -10 27 -8 l37 3 -50 -25 c-27 -14 -41 -22 -30 -18 11
4 46 9 78 11 65 4 81 -4 101 -52 7 -17 30 -46 50 -64 l37 -32 -60 -60 c-32
-33 -68 -60 -78 -60 -31 0 -139 56 -181 95 -47 42 -67 91 -57 142 21 114 283
573 326 573 11 0 28 -14 39 -32 11 -18 20 -28 20 -22 0 25 -47 79 -68 78 -26
-1 -28 13 -5 38 12 13 31 18 77 19 34 0 84 8 111 18 l50 18 38 -25 c20 -14 40
-22 43 -19 3 3 -8 13 -25 21 -37 19 -52 45 -44 74 6 26 16 28 33 8z m55 -14
c-3 -3 -11 0 -18 7 -9 10 -8 11 6 5 10 -3 15 -9 12 -12z m388 -59 c8 -16 39
-103 71 -194 125 -368 110 -580 -49 -689 -50 -34 -126 -63 -194 -74 l-44 -7 6
45 c25 181 14 326 -43 552 -26 104 -83 238 -116 275 -20 22 -18 29 11 29 18 0
23 -4 19 -15 -4 -8 -1 -22 6 -30 16 -19 84 -13 109 9 21 19 43 20 58 5 7 -7
22 -9 40 -4 15 5 38 7 51 6 18 -2 22 3 22 23 0 14 -4 26 -9 26 -16 0 -41 31
-41 51 0 16 7 19 45 19 39 0 46 -4 58 -27z m-213 13 c0 -3 -4 -8 -10 -11 -5
-3 -10 -1 -10 4 0 6 5 11 10 11 6 0 10 -2 10 -4z m-412 -838 c21 -21 13 -54
-23 -104 -20 -27 -41 -61 -47 -76 l-12 -26 -28 45 c-17 26 -26 52 -23 63 6 19
99 110 113 110 4 0 13 -5 20 -12z m606 -165 c36 -113 53 -224 30 -201 -12 13
-84 230 -79 239 14 22 35 6 49 -38z m-84 -30 c6 -32 18 -86 26 -121 17 -78 18
-72 -5 -72 -15 0 -22 17 -40 108 -25 126 -26 142 -7 142 10 0 19 -20 26 -57z
m-1343 -389 c7 -10 13 -29 13 -43 l0 -25 16 23 c36 50 193 97 180 54 -10 -35
-26 -108 -26 -125 0 -14 8 -18 34 -18 38 0 38 0 56 93 l14 67 38 0 c21 0 38
-5 38 -10 0 -6 -18 -94 -40 -196 -22 -103 -40 -188 -40 -190 0 -2 -18 -4 -40
-4 -37 0 -40 2 -35 23 8 36 35 168 35 173 0 3 -17 4 -37 2 l-38 -3 -20 -95
-20 -95 -38 -3 c-28 -2 -37 1 -37 12 0 8 16 87 35 176 19 89 35 163 35 166 0
3 -9 0 -20 -6 -27 -15 -50 -62 -50 -105 0 -22 -5 -35 -13 -35 -20 0 -37 22
-37 47 0 18 -6 23 -26 23 -21 0 -25 3 -19 18 5 9 8 28 9 42 1 31 -36 40 -64
15 -45 -40 -84 -199 -66 -269 13 -53 89 -55 143 -4 17 16 23 18 23 7 0 -44
-82 -98 -148 -99 -44 0 -85 23 -100 55 -28 61 -7 205 41 276 38 57 84 82 141
76 32 -3 54 -11 63 -23z m593 6 c11 -11 20 -28 20 -37 0 -15 2 -14 15 4 26 37
87 53 191 52 53 -1 94 -5 94 -11 0 -33 -22 -48 -70 -48 -27 0 -51 -3 -53 -7
-3 -5 -8 -27 -12 -50 l-7 -43 36 0 c29 0 36 -4 36 -19 0 -16 -8 -20 -42 -23
l-42 -3 -20 -97 -20 -98 -38 0 c-21 0 -38 4 -38 10 0 9 55 271 67 318 4 16 1
22 -10 22 -26 0 -47 -41 -47 -92 0 -32 -4 -48 -12 -48 -25 0 -41 18 -42 47 -1
25 -5 29 -23 25 -24 -5 -26 1 -14 33 10 23 -4 55 -23 55 -45 0 -67 -99 -29
-130 l21 -17 -34 -26 c-45 -37 -63 -96 -40 -132 9 -14 23 -25 31 -25 24 0 69
21 93 42 17 16 22 18 22 7 0 -20 -58 -75 -93 -88 -61 -23 -126 -7 -146 36 -25
55 -6 120 47 165 28 23 29 26 15 52 -45 86 99 194 167 126z m575 -2 c3 -13 17
-75 31 -138 14 -63 26 -116 27 -117 2 -1 15 61 31 138 29 139 29 139 57 139
26 0 27 -1 18 -32 -15 -54 -11 -63 16 -34 32 34 100 65 144 66 30 0 33 -2 28
-22 -4 -13 -23 -103 -44 -200 l-37 -178 -38 0 c-21 0 -38 4 -38 9 0 6 16 82
35 171 19 89 35 166 35 173 0 6 -15 -3 -32 -21 -27 -26 -33 -40 -33 -77 0 -35
-4 -45 -17 -45 -9 0 -23 9 -31 21 -14 19 -15 18 -22 -18 -4 -21 -16 -77 -27
-125 l-20 -88 -37 0 -38 0 -29 128 -30 127 -30 -125 c-28 -121 -30 -125 -57
-128 -24 -3 -27 -1 -22 20 36 153 73 333 69 338 -3 3 -19 -10 -36 -29 -27 -30
-30 -39 -26 -83 4 -40 2 -48 -9 -44 -8 4 -18 6 -23 6 -15 0 -27 54 -19 84 17
61 81 106 151 106 41 0 48 -3 53 -22z m635 17 c0 -3 -41 -83 -90 -179 -90
-173 -90 -174 -65 -178 31 -6 76 2 70 12 -10 17 8 40 31 40 20 0 24 -5 24 -29
0 -50 -29 -61 -152 -61 l-107 0 95 185 96 185 -46 0 c-43 0 -46 -2 -46 -25 0
-30 -24 -43 -45 -25 -20 17 -19 36 5 60 17 17 33 20 125 20 58 0 105 -2 105
-5z m364 -10 c-1 -5 -19 -94 -40 -197 l-39 -188 -37 0 c-44 0 -44 -2 -21 107
9 45 15 85 12 88 -3 2 -19 8 -36 11 l-31 6 -31 -96 c-17 -53 -31 -114 -31
-136 0 -32 -4 -40 -18 -40 -11 0 -27 9 -37 20 -17 19 -18 27 -7 76 6 30 24 81
40 114 25 53 26 60 11 60 -19 0 -33 -17 -34 -40 0 -10 -10 -15 -30 -15 -25 0
-30 4 -30 24 0 32 40 60 93 65 36 3 47 9 71 42 31 43 75 85 106 103 24 13 91
10 89 -4z m239 6 c62 -24 79 -97 33 -141 -23 -20 -24 -24 -9 -38 12 -13 14
-28 8 -76 -4 -34 -8 -79 -10 -101 -2 -36 -5 -40 -32 -43 -50 -5 -58 16 -37
101 19 81 15 107 -14 107 -16 0 -22 -14 -36 -82 -26 -125 -22 -118 -68 -118
-28 0 -39 4 -35 13 2 6 19 82 37 167 18 85 33 156 34 157 0 0 18 4 40 8 l39 8
-7 -48 c-4 -26 -10 -54 -13 -61 -9 -23 22 -16 47 11 28 29 33 91 10 106 -23
14 -88 11 -120 -6 -41 -21 -60 -53 -60 -102 0 -50 -20 -58 -45 -19 -14 21 -14
28 -2 59 33 77 158 129 240 98z m-2206 -617 c3 -8 0 -26 -7 -39 -7 -13 -10
-35 -6 -49 5 -19 3 -26 -9 -26 -10 0 -15 10 -15 30 0 20 -5 30 -15 30 -14 0
-20 -17 -16 -47 1 -7 -7 -13 -19 -13 -21 0 -27 14 -10 25 5 3 12 28 16 55 6
49 7 50 41 50 21 0 36 -6 40 -16z m201 -1 c-2 -9 -9 -18 -17 -21 -8 -3 -11 0
-7 7 5 7 -2 11 -18 11 -19 0 -26 -5 -26 -19 0 -11 8 -22 18 -24 13 -4 13 -5
-4 -6 -13 -1 -24 -9 -27 -21 -4 -16 0 -20 18 -20 13 0 25 6 28 13 2 6 8 9 12
5 4 -4 5 -14 2 -23 -5 -10 -20 -15 -51 -15 l-44 0 14 38 c7 20 13 49 14 65 0
25 3 27 46 27 37 0 45 -3 42 -17z m171 4 c15 -19 3 -28 -19 -15 -20 13 -54 3
-45 -13 4 -5 18 -14 31 -19 26 -10 32 -38 12 -58 -17 -17 -67 -15 -75 3 -8 23
5 31 20 11 8 -11 19 -15 30 -10 25 9 21 27 -13 46 -34 19 -37 30 -14 52 19 20
58 21 73 3z m201 -1 c0 -8 -4 -18 -10 -21 -5 -3 -10 -1 -10 4 0 6 -6 11 -14
11 -15 0 -38 -74 -29 -96 3 -9 -2 -14 -16 -14 -12 0 -21 1 -21 3 0 1 7 20 15
42 18 51 18 65 1 65 -8 0 -16 -6 -19 -12 -2 -7 -7 -10 -11 -7 -3 3 -4 14 0 23
8 22 114 24 114 2z m154 -33 c4 -27 9 -56 12 -65 4 -13 0 -18 -14 -18 -15 0
-19 5 -15 21 5 18 2 20 -23 17 -20 -2 -29 -8 -28 -20 1 -13 -6 -18 -24 -18
-23 0 -24 1 -10 18 8 9 28 38 43 65 15 26 33 47 40 47 8 0 15 -19 19 -47z
m156 39 c0 -4 -4 -12 -9 -17 -5 -6 -11 -26 -13 -45 -2 -30 0 -35 19 -38 26 -4
45 26 46 74 1 26 5 34 19 34 19 0 24 -15 9 -24 -4 -3 -11 -22 -14 -42 -8 -47
-23 -64 -58 -64 -29 0 -56 31 -44 50 3 5 6 25 7 45 1 27 5 35 20 35 10 0 18
-4 18 -8z m250 -7 c11 -13 11 -20 0 -40 -7 -13 -10 -35 -6 -49 5 -19 3 -26 -9
-26 -9 0 -15 9 -15 24 0 14 -5 28 -11 32 -15 9 -30 -16 -23 -38 4 -13 0 -18
-16 -18 -17 0 -21 4 -15 18 17 42 24 78 19 94 -4 15 1 18 29 18 19 0 40 -7 47
-15z m183 -32 c3 -27 9 -56 12 -65 6 -14 2 -18 -15 -18 -17 0 -20 4 -15 20 5
17 2 20 -20 20 -18 0 -29 -6 -32 -20 -3 -11 -14 -20 -24 -20 -18 0 -18 2 4 38
13 20 31 49 41 65 25 41 42 34 49 -20z m177 1 c15 -51 30 -47 32 9 1 29 5 37
20 37 19 0 24 -11 11 -24 -5 -4 -13 -29 -18 -54 -13 -62 -34 -61 -55 3 l-17
50 -7 -42 c-4 -23 -5 -47 -1 -53 4 -6 -5 -10 -21 -10 -20 0 -24 3 -16 13 11
13 27 85 24 105 -2 6 6 12 16 12 14 0 23 -12 32 -46z m270 42 c0 -2 -3 -12 -6
-20 -5 -13 -9 -14 -21 -5 -21 18 -35 -2 -37 -55 -1 -41 -3 -46 -25 -46 -17 0
-21 3 -14 13 18 22 32 97 19 97 -7 0 -17 -5 -24 -12 -9 -9 -12 -7 -12 10 0 20
5 22 60 22 33 0 60 -2 60 -4z m155 -9 c14 -11 15 -16 5 -22 -7 -4 -16 -2 -20
5 -9 14 -42 10 -47 -6 -2 -6 8 -16 22 -22 31 -14 41 -37 25 -57 -22 -27 -90
-14 -90 17 0 14 22 8 35 -9 11 -15 15 -15 29 -4 22 18 20 28 -6 37 -39 12 -47
34 -22 58 19 20 44 20 69 3z"/>
<path d="M2465 3579 c-28 -16 -94 -80 -107 -104 -11 -19 -10 -19 16 -2 15 10
56 23 93 30 42 8 70 18 77 30 24 38 -33 71 -79 46z"/>
<path d="M2417 3452 c-10 -10 -17 -35 -17 -56 l0 -37 30 16 c16 8 40 15 54 15
l25 0 -25 27 c-29 31 -54 24 -65 -18 l-7 -24 -1 26 c-2 61 73 77 103 21 9 -15
15 -22 16 -16 0 6 -9 23 -21 38 -24 31 -68 35 -92 8z"/>
<path d="M2567 3083 c21 -16 35 -16 57 0 15 11 11 13 -29 12 -38 0 -43 -2 -28
-12z"/>
<path d="M3086 3448 c-3 -13 -5 -32 -5 -43 1 -11 5 -2 10 19 10 42 6 62 -5 24z"/>
<path d="M2816 2695 c-12 -12 -13 -21 -6 -36 13 -23 33 -25 51 -3 9 11 10 20
3 32 -15 23 -29 25 -48 7z"/>
<path d="M2623 2673 c-18 -7 -16 -52 3 -60 23 -9 51 23 38 44 -12 19 -23 24
-41 16z"/>
<path d="M2850 2451 c-7 -15 -6 -24 6 -36 19 -18 33 -16 48 7 7 12 6 21 -3 32
-18 22 -38 20 -51 -3z"/>
<path d="M2655 2419 c-9 -26 16 -55 40 -45 25 9 16 60 -12 64 -15 2 -23 -3
-28 -19z"/>
<path d="M2860 2241 c-7 -15 -6 -24 6 -36 19 -18 33 -16 48 7 7 12 6 21 -3 32
-18 22 -38 20 -51 -3z"/>
<path d="M2673 2204 c-8 -22 9 -49 33 -49 30 0 27 59 -4 63 -14 2 -25 -3 -29
-14z"/>
<path d="M3447 1478 c-13 -18 -32 -45 -42 -60 -17 -27 -17 -28 10 -38 15 -6
30 -8 33 -6 7 8 33 128 28 133 -2 2 -15 -11 -29 -29z"/>
<path d="M1540 901 c0 -14 5 -18 20 -14 11 3 20 12 20 19 0 8 -9 14 -20 14
-13 0 -20 -7 -20 -19z"/>
<path d="M2286 895 c-9 -23 -8 -25 9 -25 17 0 19 9 6 28 -7 11 -10 10 -15 -3z"/>
<path d="M2680 900 c0 -22 1 -23 24 -14 23 9 20 34 -4 34 -13 0 -20 -7 -20
-20z"/>
<path d="M2872 895 c-10 -21 -9 -25 3 -25 9 0 15 10 15 25 0 14 -2 25 -3 25
-2 0 -9 -11 -15 -25z"/>
</g>
</svg>
